<svg width="80" height="80" viewBox="0 0 80 80" fill="none" xmlns="http://www.w3.org/2000/svg">
<g clip-path="url(#clip0_394_3573)">
<path d="M37.6549 0C39.2183 0 40.7817 0 42.3451 0C42.5447 0.0333333 42.7443 0.133333 42.9439 0.133333C48.5988 0.5 53.9543 2.03333 58.9106 4.76667C70.1206 11.0333 76.973 20.4667 79.368 33.1C79.6674 34.6 79.8004 36.1333 80 37.6333V42.3333C79.9667 42.5667 79.9002 42.7667 79.8669 43C79.4678 48.5667 78.0374 53.9 75.3098 58.7667C67.8919 71.9667 56.5821 79.0667 41.447 79.9333C35.027 80.3 28.8399 79.0333 23.052 76.2C10.7443 70.1667 3.25988 60.4 0.632017 46.9667C0.33264 45.4333 0.199584 43.9 0 42.3667C0 40.8 0 39.2333 0 37.6667C0.033264 37.4333 0.133056 37.2333 0.133056 37C0.465696 32.1333 1.62994 27.5 3.75884 23.1333C10.0457 10.4 20.158 2.8 34.1954 0.433333C35.3597 0.233333 36.4906 0.133333 37.6549 0ZM39.9834 73.3C58.3784 73.3 73.2474 58.4333 73.2807 40.0333C73.3139 21.6333 58.3784 6.7 39.9834 6.7C21.6216 6.7 6.71933 21.5667 6.68607 39.9667C6.65281 58.3333 21.5884 73.3 39.9834 73.3Z" fill="white"/>
<path d="M33.397 40.0334C33.397 36.1667 33.397 32.3334 33.397 28.4667C33.397 27.5334 33.5633 26.7 34.4614 26.2334C35.3928 25.7334 36.1912 26.1 36.9895 26.6667C42.2785 30.5334 47.5675 34.3667 52.8232 38.2C54.3866 39.3334 54.3866 40.7667 52.8564 41.9C47.5009 45.8 42.1787 49.6667 36.8232 53.5667C35.792 54.3334 34.661 54.3667 34.029 53.5667C33.6631 53.1 33.4302 52.4 33.4302 51.8C33.3637 47.9 33.4302 44 33.4302 40.0667L33.397 40.0334Z" fill="white"/>
</g>
<defs>
<clipPath id="clip0_394_3573">
<rect width="80" height="80" fill="white"/>
</clipPath>
</defs>
</svg>
