<svg width="23" height="18" viewBox="0 0 23 18" fill="none" xmlns="http://www.w3.org/2000/svg">
<path d="M7.54436 13.0348C7.66904 13.4735 7.78254 13.8794 7.90262 14.2834C7.91117 14.3125 7.96512 14.3399 8.00131 14.3456C8.06546 14.3556 8.13257 14.3489 8.19837 14.3489C10.6762 14.3489 13.1541 14.3479 15.6319 14.3496C16.4366 14.3502 17.1281 14.8742 17.3571 15.6476C17.5837 16.4137 17.2932 17.241 16.6386 17.6911C16.0418 18.1014 15.225 18.1027 14.6384 17.6944C14.0203 17.2641 13.7219 16.5107 13.8808 15.7817C13.8959 15.7122 13.9107 15.6426 13.9278 15.5617H9.51723C9.5294 15.6196 9.53796 15.6674 9.5498 15.7149C9.76824 16.5963 9.33366 17.5005 8.52208 17.8526C7.71674 18.202 6.77258 17.9124 6.30544 17.1728C5.8202 16.404 5.94883 15.4039 6.62224 14.8043C6.73113 14.7074 6.73245 14.6345 6.69067 14.5084C5.69091 11.4896 4.69543 8.46943 3.69896 5.44927C3.36439 4.43542 3.02752 3.42257 2.69624 2.40772C2.66268 2.30506 2.6163 2.27096 2.51102 2.27162C1.89156 2.27631 1.2721 2.27564 0.652636 2.27263C0.364782 2.27096 0.14042 2.1168 0.0460037 1.86869C-0.0474256 1.62359 -5.30057e-05 1.34338 0.201938 1.18354C0.316093 1.09359 0.473344 1.01334 0.61283 1.01066C1.43461 0.994947 2.25705 0.999963 3.07949 1.00464C3.35879 1.00632 3.59237 1.2026 3.69336 1.50254C4.02629 2.49332 4.35987 3.48377 4.68556 4.47689C4.72799 4.60629 4.78425 4.64575 4.91716 4.64541C9.66428 4.63438 14.4117 4.62769 19.1589 4.62034C19.2632 4.62034 19.3671 4.61866 19.4714 4.62134C19.9106 4.63204 20.0889 4.87915 19.958 5.30582C19.7981 5.82679 19.6359 6.34709 19.4671 6.86505C18.8631 8.72055 18.2562 10.5754 17.6485 12.4295C17.6124 12.5399 17.5689 12.6499 17.5123 12.7505C17.4192 12.9167 17.2705 13.0094 17.0814 13.0144C16.6817 13.0254 16.2816 13.0358 15.8816 13.0358C13.1791 13.0368 10.4765 13.0351 7.77399 13.0341C7.70918 13.0341 7.64404 13.0341 7.54436 13.0341V13.0348Z" fill="white"/>
<circle cx="18.5" cy="4.5" r="4.5" fill="#09099C"/>
<path d="M19.127 2.72559V7H18.2832V3.69824L17.2695 4.02051V3.35547L19.0361 2.72559H19.127Z" fill="white"/>
</svg>
