<svg width="20" height="17" viewBox="0 0 20 17" fill="none" xmlns="http://www.w3.org/2000/svg">
<path d="M7.54436 12.0348C7.66904 12.4735 7.78254 12.8794 7.90262 13.2834C7.91117 13.3125 7.96512 13.3399 8.00131 13.3456C8.06546 13.3556 8.13257 13.3489 8.19837 13.3489C10.6762 13.3489 13.1541 13.3479 15.6319 13.3496C16.4366 13.3502 17.1281 13.8742 17.3571 14.6476C17.5837 15.4137 17.2932 16.241 16.6386 16.6911C16.0418 17.1014 15.225 17.1027 14.6384 16.6944C14.0203 16.2641 13.7219 15.5107 13.8808 14.7817C13.8959 14.7122 13.9107 14.6426 13.9278 14.5617H9.51723C9.5294 14.6196 9.53796 14.6674 9.5498 14.7149C9.76824 15.5963 9.33366 16.5005 8.52208 16.8526C7.71674 17.202 6.77258 16.9124 6.30544 16.1728C5.8202 15.404 5.94883 14.4039 6.62224 13.8043C6.73113 13.7074 6.73245 13.6345 6.69067 13.5084C5.69091 10.4896 4.69543 7.46943 3.69896 4.44927C3.36439 3.43542 3.02752 2.42257 2.69624 1.40772C2.66268 1.30506 2.6163 1.27096 2.51102 1.27162C1.89156 1.27631 1.2721 1.27564 0.652636 1.27263C0.364782 1.27096 0.14042 1.1168 0.0460037 0.868692C-0.0474256 0.623589 -5.30057e-05 0.343375 0.201938 0.18354C0.316093 0.0935903 0.473344 0.0133382 0.61283 0.0106631C1.43461 -0.00505289 2.25705 -3.71326e-05 3.07949 0.00464424C3.35879 0.00631616 3.59237 0.202599 3.69336 0.502542C4.02629 1.49332 4.35987 2.48377 4.68556 3.47689C4.72799 3.60629 4.78425 3.64575 4.91716 3.64541C9.66428 3.63438 14.4117 3.62769 19.1589 3.62034C19.2632 3.62034 19.3671 3.61866 19.4714 3.62134C19.9106 3.63204 20.0889 3.87915 19.958 4.30582C19.7981 4.82679 19.6359 5.34709 19.4671 5.86505C18.8631 7.72055 18.2562 9.57538 17.6485 11.4295C17.6124 11.5399 17.5689 11.6499 17.5123 11.7505C17.4192 11.9167 17.2705 12.0094 17.0814 12.0144C16.6817 12.0254 16.2816 12.0358 15.8816 12.0358C13.1791 12.0368 10.4765 12.0351 7.77399 12.0341C7.70918 12.0341 7.64404 12.0341 7.54436 12.0341V12.0348Z" fill="white"/>
</svg>
