<svg width="16" height="18" viewBox="0 0 16 18" fill="none" xmlns="http://www.w3.org/2000/svg">
<path d="M15.2048 5.81896C15.2028 5.18372 14.8604 4.59044 14.311 4.27101L8.5678 0.930557C8.01251 0.607509 7.32192 0.606424 6.76554 0.927663L1.05486 4.22452C0.498479 4.54576 0.154269 5.14447 0.156259 5.78695L0.177602 12.4311C0.179592 13.0664 0.521994 13.6597 1.07132 13.9791L6.81473 17.3195C7.09329 17.4816 7.40584 17.5626 7.7184 17.5626C8.03096 17.5626 8.33972 17.4827 8.617 17.3224L14.3275 14.0254C14.8839 13.7042 15.2283 13.1056 15.2261 12.4632L15.2048 5.81896ZM12.0428 8.79965V12.0889C12.0302 12.7231 12.0027 13.132 11.9672 13.3943C11.9611 13.4401 11.9499 13.5059 11.9175 13.6229C11.8354 13.9185 11.5727 14.0804 11.4528 14.1392C11.2298 14.2486 11.0768 14.2909 10.6969 14.3788C10.3856 14.4508 10.216 14.4392 10.0959 14.3678C9.97937 14.2985 9.8987 14.1884 9.81188 13.8478C9.74912 13.6011 9.69702 13.248 9.66067 12.8264L9.63281 11.1087V10.4659C9.63281 10.3304 9.52284 10.2204 9.38736 10.2204H5.99482C5.85934 10.2204 5.74936 10.3302 5.74936 10.4659V11.1087L5.72151 12.8264C5.68533 13.248 5.63306 13.6012 5.57029 13.8478C5.48365 14.1884 5.4028 14.2983 5.28632 14.3678C5.16621 14.4392 4.99655 14.451 4.68526 14.3788C4.30542 14.2909 4.15239 14.2486 3.92937 14.1392C3.80945 14.0804 3.54681 13.9185 3.4647 13.6229C3.43214 13.5059 3.4211 13.4401 3.41495 13.3943C3.3795 13.1319 3.35201 12.7231 3.33935 12.0889V6.16118C3.35201 5.52703 3.3795 5.11806 3.41495 4.85579C3.4211 4.81003 3.43232 4.74401 3.4647 4.62716C3.54681 4.3316 3.80945 4.16972 3.92937 4.11093C4.15239 4.0015 4.30542 3.95918 4.68526 3.87127C4.99655 3.79928 5.16621 3.81086 5.28632 3.8823C5.4028 3.95158 5.48365 4.06173 5.57029 4.40233C5.63306 4.64904 5.68515 5.00212 5.72151 5.42374L5.74936 7.14136V7.7842C5.74936 7.91968 5.85934 8.02965 5.99482 8.02965H9.38736C9.52284 8.02965 9.63281 7.91968 9.63281 7.7842V7.14136L9.66067 5.42374C9.69684 5.00212 9.74912 4.64886 9.81188 4.40233C9.89852 4.06173 9.97937 3.95176 10.0959 3.8823C10.216 3.81086 10.3856 3.7991 10.6969 3.87127C11.0768 3.95918 11.2298 4.0015 11.4528 4.11093C11.5727 4.16972 11.8354 4.3316 11.9175 4.62716C11.95 4.74419 11.9611 4.81003 11.9672 4.85579C12.0027 5.11824 12.0302 5.52703 12.0428 6.16118V8.79965Z" fill="white"/>
</svg>
