<svg width="138" height="20" viewBox="0 0 138 20" fill="none" xmlns="http://www.w3.org/2000/svg">
<path d="M0.795486 4.9845H4.4282C5.66563 4.9845 6.58927 5.22314 7.19915 5.70043C7.81786 6.17772 8.12721 6.96879 8.12721 8.07363C8.12721 9.17847 7.82228 9.9828 7.2124 10.4866C6.60253 10.9904 5.67446 11.2423 4.4282 11.2423H2.58533V14H0.795486V4.9845ZM4.4282 9.69112C5.02924 9.69112 5.48443 9.56738 5.79379 9.31989C6.11198 9.06357 6.27108 8.65699 6.27108 8.10015C6.27108 7.54331 6.11198 7.14998 5.79379 6.92018C5.48443 6.69037 5.02924 6.57547 4.4282 6.57547H2.58533V9.69112H4.4282ZM8.59187 10.7783C8.59187 10.1949 8.67583 9.69554 8.84377 9.28012C9.01171 8.85586 9.24593 8.50673 9.54645 8.23273C9.8558 7.94989 10.2182 7.74218 10.6336 7.6096C11.049 7.47702 11.4998 7.41073 11.9859 7.41073C12.4809 7.41073 12.9361 7.47702 13.3515 7.6096C13.7669 7.74218 14.1249 7.94989 14.4254 8.23273C14.7259 8.50673 14.9602 8.85586 15.1281 9.28012C15.296 9.69554 15.38 10.1949 15.38 10.7783C15.38 11.3616 15.296 11.8654 15.1281 12.2897C14.9602 12.7051 14.7259 13.0498 14.4254 13.3238C14.1249 13.5978 13.7669 13.8011 13.3515 13.9337C12.9361 14.0663 12.4809 14.1326 11.9859 14.1326C11.4998 14.1326 11.049 14.0663 10.6336 13.9337C10.2182 13.8011 9.8558 13.5978 9.54645 13.3238C9.24593 13.0498 9.01171 12.7051 8.84377 12.2897C8.67583 11.8654 8.59187 11.3616 8.59187 10.7783ZM10.3817 10.7783C10.3817 11.4854 10.532 11.998 10.8325 12.3162C11.133 12.6256 11.5175 12.7803 11.9859 12.7803C12.4544 12.7803 12.8389 12.6212 13.1394 12.303C13.4487 11.9848 13.6034 11.4765 13.6034 10.7783C13.6034 10.0712 13.4487 9.56296 13.1394 9.2536C12.8389 8.93541 12.4544 8.77631 11.9859 8.77631C11.5263 8.77631 11.1418 8.93541 10.8325 9.2536C10.532 9.56296 10.3817 10.0712 10.3817 10.7783ZM17.5114 7.54331L18.8106 11.7063L20.0171 7.54331H21.5153L22.7218 11.7063L24.0211 7.54331H25.8905L23.6233 14H22.0721L20.7728 9.77067L19.4603 14H17.9091L15.642 7.54331H17.5114ZM26.1614 10.7783C26.1614 10.1949 26.2454 9.69554 26.4133 9.28012C26.5813 8.85586 26.8155 8.50673 27.116 8.23273C27.4165 7.94989 27.7701 7.74218 28.1767 7.6096C28.5832 7.47702 29.0296 7.41073 29.5157 7.41073C29.9577 7.41073 30.3687 7.4726 30.7487 7.59634C31.1288 7.71124 31.4647 7.8836 31.7563 8.11341C32.048 8.34321 32.2778 8.63047 32.4458 8.97518C32.6225 9.31105 32.7198 9.69996 32.7374 10.1419V11.1893H27.938C27.9822 11.6931 28.1325 12.0953 28.3888 12.3958C28.6451 12.6874 29.034 12.8333 29.5555 12.8333C29.8472 12.8333 30.1123 12.7714 30.351 12.6477C30.5985 12.5239 30.7797 12.3118 30.8946 12.0113H32.6314C32.5076 12.6742 32.185 13.1957 31.6635 13.5757C31.1421 13.947 30.4261 14.1326 29.5157 14.1326C29.0296 14.1326 28.5832 14.0663 28.1767 13.9337C27.7701 13.8011 27.4165 13.5978 27.116 13.3238C26.8155 13.0498 26.5813 12.7051 26.4133 12.2897C26.2454 11.8654 26.1614 11.3616 26.1614 10.7783ZM30.9476 10.1154C30.9476 9.6646 30.8106 9.31989 30.5366 9.08125C30.2626 8.83376 29.9091 8.71002 29.476 8.71002C29.0163 8.71002 28.6672 8.83818 28.4286 9.09451C28.1988 9.35083 28.0485 9.69112 27.9778 10.1154H30.9476ZM33.7305 7.54331H35.3214L35.4275 8.67025C35.7192 8.24599 36.0683 7.94105 36.4749 7.75544C36.8903 7.56982 37.3543 7.47702 37.867 7.47702V9.20057C37.8051 9.19173 37.7432 9.18731 37.6814 9.18731C37.6283 9.17847 37.5709 9.17405 37.509 9.17405C37.2527 9.17405 37.0052 9.21383 36.7666 9.29338C36.5368 9.37293 36.329 9.49225 36.1434 9.65135C35.9578 9.81044 35.8031 10.0093 35.6794 10.248C35.5645 10.4778 35.4894 10.7518 35.454 11.07V14H33.7305V7.54331ZM38.4355 10.7783C38.4355 10.1949 38.5195 9.69554 38.6874 9.28012C38.8554 8.85586 39.0896 8.50673 39.3901 8.23273C39.6906 7.94989 40.0442 7.74218 40.4508 7.6096C40.8573 7.47702 41.3037 7.41073 41.7898 7.41073C42.2318 7.41073 42.6428 7.4726 43.0228 7.59634C43.4029 7.71124 43.7388 7.8836 44.0304 8.11341C44.3221 8.34321 44.5519 8.63047 44.7199 8.97518C44.8966 9.31105 44.9939 9.69996 45.0115 10.1419V11.1893H40.2121C40.2563 11.6931 40.4066 12.0953 40.6629 12.3958C40.9192 12.6874 41.3081 12.8333 41.8296 12.8333C42.1213 12.8333 42.3864 12.7714 42.6251 12.6477C42.8726 12.5239 43.0538 12.3118 43.1687 12.0113H44.9055C44.7817 12.6742 44.4591 13.1957 43.9376 13.5757C43.4161 13.947 42.7002 14.1326 41.7898 14.1326C41.3037 14.1326 40.8573 14.0663 40.4508 13.9337C40.0442 13.8011 39.6906 13.5978 39.3901 13.3238C39.0896 13.0498 38.8554 12.7051 38.6874 12.2897C38.5195 11.8654 38.4355 11.3616 38.4355 10.7783ZM43.2217 10.1154C43.2217 9.6646 43.0847 9.31989 42.8107 9.08125C42.5367 8.83376 42.1831 8.71002 41.75 8.71002C41.2904 8.71002 40.9413 8.83818 40.7027 9.09451C40.4729 9.35083 40.3226 9.69112 40.2519 10.1154H43.2217ZM45.6731 10.7783C45.6731 10.1949 45.7438 9.69554 45.8852 9.28012C46.0355 8.85586 46.2388 8.50673 46.4951 8.23273C46.7514 7.94989 47.0564 7.74218 47.4099 7.6096C47.7723 7.47702 48.1656 7.41073 48.5899 7.41073C49.5179 7.41073 50.2118 7.72008 50.6714 8.33879V4.9845H52.395V14H50.8172L50.6714 13.2045C50.4416 13.5139 50.1499 13.7481 49.7964 13.9072C49.4428 14.0575 49.0407 14.1326 48.5899 14.1326C48.1656 14.1326 47.7767 14.0663 47.4232 13.9337C47.0696 13.8011 46.7603 13.5978 46.4951 13.3238C46.2388 13.0498 46.0355 12.7051 45.8852 12.2897C45.7438 11.8654 45.6731 11.3616 45.6731 10.7783ZM49.0937 8.77631C48.6252 8.77631 48.2363 8.93541 47.927 9.2536C47.6176 9.56296 47.4629 10.0712 47.4629 10.7783C47.4629 11.4854 47.6132 11.998 47.9137 12.3162C48.2231 12.6256 48.6164 12.7803 49.0937 12.7803C49.4914 12.7803 49.8273 12.6786 50.1013 12.4753C50.3841 12.2632 50.5742 11.9317 50.6714 11.481V10.0756C50.5653 9.61599 50.3709 9.28454 50.088 9.08125C49.814 8.87796 49.4826 8.77631 49.0937 8.77631ZM57.2978 4.9845H60.9835C62.0353 4.9845 62.8396 5.17011 63.3965 5.54134C63.9622 5.91256 64.245 6.51802 64.245 7.35769C64.245 7.87034 64.1389 8.29018 63.9268 8.61721C63.7235 8.94425 63.4451 9.20057 63.0915 9.38618C63.56 9.53644 63.9445 9.77509 64.245 10.1021C64.5543 10.4203 64.709 10.8623 64.709 11.4279C64.709 11.9317 64.6295 12.3472 64.4704 12.6742C64.3113 13.0012 64.0771 13.2664 63.7677 13.4697C63.4672 13.6641 63.096 13.8011 62.654 13.8807C62.2209 13.9602 61.7215 14 61.1559 14H57.2978V4.9845ZM59.0876 12.4753H61.1691C61.6994 12.4753 62.1149 12.3825 62.4154 12.1969C62.7247 12.0024 62.8794 11.7063 62.8794 11.3086C62.8794 10.8667 62.7247 10.5529 62.4154 10.3673C62.1149 10.1728 61.695 10.0756 61.1559 10.0756H59.0876V12.4753ZM61.0233 8.82934C61.4475 8.82934 61.7967 8.73212 62.0707 8.53766C62.3447 8.34321 62.4817 8.0427 62.4817 7.63611C62.4817 7.22953 62.3358 6.94227 62.0441 6.77434C61.7525 6.59756 61.3901 6.50918 60.957 6.50918H59.0876V8.82934H61.0233ZM65.1785 7.54331H67.0479L68.6522 11.8787L70.4685 7.54331H72.2319L69.2753 14.6762C69.0985 15.1004 68.8997 15.4407 68.6787 15.697C68.4577 15.9622 68.2235 16.1655 67.976 16.3069C67.7285 16.4483 67.4722 16.5411 67.207 16.5853C66.9419 16.6384 66.6723 16.6649 66.3983 16.6649C66.3364 16.6649 66.2746 16.6605 66.2127 16.6516C66.1596 16.6516 66.1022 16.6516 66.0403 16.6516V15.1667C66.1729 15.1667 66.3099 15.1579 66.4513 15.1402C66.6016 15.1314 66.743 15.1004 66.8756 15.0474C67.017 14.9944 67.1496 14.9104 67.2733 14.7955C67.4059 14.6894 67.5252 14.5436 67.6313 14.358L67.8037 13.9337L65.1785 7.54331Z" fill="white"/>
<g clip-path="url(#clip0_383_308)">
<path d="M87.1555 3.01062V16.6677H84.0018V10.9566H79.1066V16.6677H76V3.01062H79.1066V8.27482H84.0018V3.01062H87.1555Z" fill="white"/>
<path d="M92.3333 3.01062V10.8573C92.2902 11.6002 92.4896 12.3363 92.8981 12.9431C93.1092 13.191 93.3724 13.3831 93.6668 13.5039C93.9612 13.6246 94.2783 13.6707 94.5926 13.6384C94.9055 13.6545 95.2181 13.6009 95.5101 13.4811C95.802 13.3613 96.0668 13.178 96.2871 12.9431C96.7021 12.3396 96.9021 11.601 96.852 10.8573V3.01062H99.9586V10.8573C99.9987 11.9803 99.755 13.0944 99.2525 14.0853C98.7961 14.9234 98.128 15.6111 97.3227 16.0718C96.4609 16.5233 95.5074 16.745 94.5456 16.7174C93.5988 16.7452 92.6604 16.5233 91.8155 16.0718C91.0138 15.6232 90.3579 14.9312 89.9327 14.0853C89.4521 13.0698 89.2253 11.9416 89.2737 10.8076V3.01062H92.3333Z" fill="white"/>
<path d="M116.574 3.10986V16.6676H113.467V8.22509L110.69 16.7173H108.007L105.23 8.22509V16.7173H102.124V3.10986H105.936L109.419 12.5457L112.855 3.10986H116.574Z" fill="white"/>
<path d="M128.341 10.8572C128.808 11.4398 129.058 12.1806 129.047 12.943C129.073 13.4549 128.989 13.9662 128.801 14.4391C128.614 14.912 128.328 15.3342 127.965 15.6745C127.056 16.3834 125.94 16.7347 124.811 16.6677H118.786V3.01058H124.67C125.756 2.93667 126.834 3.25164 127.729 3.9045C128.087 4.21758 128.37 4.61364 128.558 5.06167C128.746 5.5097 128.833 5.99753 128.812 6.48694C128.849 7.22147 128.631 7.94508 128.2 8.52309C127.78 9.06923 127.201 9.45344 126.553 9.61565C127.248 9.84278 127.868 10.2733 128.341 10.8572ZM121.846 8.6224H123.917C124.999 8.6224 125.564 8.12577 125.564 7.13255C125.564 6.1393 124.999 5.64268 123.917 5.64268H121.893L121.846 8.6224ZM125.847 12.4961C125.864 12.2794 125.83 12.0616 125.748 11.8622C125.666 11.6628 125.538 11.4881 125.376 11.3538C125.002 11.0473 124.53 10.905 124.058 10.9565H121.846V13.9859H124.058C125.235 13.9859 125.847 13.4893 125.847 12.4961Z" fill="white"/>
<path d="M133.801 14.135H137.991V16.6677H130.695V3.01062H133.801V14.135Z" fill="white"/>
<path d="M137.059 3.01062C137.245 3.01062 137.427 3.06887 137.582 3.17801C137.737 3.28715 137.857 3.44228 137.928 3.62377C138 3.80526 138.018 4.00497 137.982 4.19764C137.946 4.39031 137.856 4.56729 137.724 4.7062C137.593 4.8451 137.425 4.9397 137.242 4.97802C137.06 5.01635 136.87 4.99668 136.698 4.92151C136.526 4.84633 136.379 4.71902 136.276 4.55568C136.172 4.39234 136.117 4.20031 136.117 4.00387C136.117 3.74044 136.216 3.4878 136.393 3.30154C136.57 3.11527 136.809 3.01062 137.059 3.01062ZM137.059 4.87792C137.224 4.87792 137.386 4.82608 137.524 4.72894C137.662 4.63181 137.769 4.49375 137.833 4.33222C137.896 4.1707 137.913 3.99295 137.88 3.82147C137.848 3.65 137.768 3.49249 137.651 3.36886C137.534 3.24523 137.384 3.16104 137.222 3.12693C137.059 3.09282 136.891 3.11033 136.738 3.17723C136.585 3.24414 136.454 3.35744 136.362 3.50282C136.27 3.64819 136.221 3.81909 136.221 3.99393V4.00387C136.223 4.23659 136.313 4.45889 136.47 4.62253C136.626 4.78617 136.838 4.87794 137.059 4.87792ZM136.72 3.40792H137.144C137.388 3.40792 137.511 3.52214 137.511 3.73569C137.511 3.81698 137.481 3.89509 137.427 3.95349C137.373 4.01188 137.3 4.04598 137.223 4.04856L137.553 4.57498H137.44L137.11 4.04856H136.823V4.57498H136.72V3.40792ZM136.823 3.9542H137.106C137.275 3.9542 137.402 3.89461 137.402 3.73072C137.402 3.56684 137.284 3.49731 137.129 3.49731H136.823V3.9542Z" fill="white"/>
</g>
<defs>
<clipPath id="clip0_383_308">
<rect width="62" height="14" fill="white" transform="translate(76 3)"/>
</clipPath>
</defs>
</svg>
