<svg width="18" height="18" viewBox="0 0 18 18" fill="none" xmlns="http://www.w3.org/2000/svg">
<path fill-rule="evenodd" clip-rule="evenodd" d="M8.77264 0.6875C6.52207 0.6875 6.24034 0.696891 5.35647 0.737218C4.47425 0.777545 3.87156 0.917859 3.34455 1.12281C2.79213 1.33052 2.29109 1.65645 1.87677 2.07849C1.4554 2.49233 1.12927 2.99302 0.921083 3.54572C0.71724 4.07273 0.576373 4.67598 0.536046 5.55819C0.496272 6.44151 0.486328 6.72269 0.486328 8.97381C0.486328 11.2249 0.495719 11.5061 0.536046 12.39C0.576373 13.2722 0.716688 13.8749 0.921636 14.4019C1.12935 14.9543 1.45527 15.4554 1.87732 15.8697C2.29117 16.291 2.79186 16.6172 3.34455 16.8254C3.87156 17.0298 4.47425 17.1701 5.35647 17.2104C6.24034 17.2507 6.52207 17.2601 8.77264 17.2601C11.0232 17.2601 11.3049 17.2507 12.1888 17.2104C13.071 17.1701 13.6737 17.0298 14.2007 16.8248C14.7531 16.6171 15.2542 16.2912 15.6685 15.8691C16.0899 15.4553 16.416 14.9546 16.6242 14.4019C16.8286 13.8749 16.9689 13.2722 17.0092 12.39C17.0496 11.5061 17.0589 11.2244 17.0589 8.97381C17.0589 6.72325 17.0496 6.44151 17.0092 5.55764C16.9689 4.67542 16.8286 4.07273 16.6236 3.54572C16.4156 2.99279 16.0895 2.49188 15.668 2.07794C15.2541 1.65657 14.7534 1.33044 14.2007 1.12225C13.6737 0.918412 13.0705 0.777545 12.1883 0.737218C11.3049 0.697444 11.0238 0.6875 8.77264 0.6875ZM8.77264 2.18069C10.9851 2.18069 11.2475 2.18898 12.1214 2.22875C12.929 2.26577 13.3677 2.4 13.6599 2.51435C14.0466 2.66406 14.3228 2.84415 14.6128 3.13362C14.9028 3.42364 15.0824 3.69985 15.2321 4.08654C15.3459 4.37877 15.4807 4.8174 15.5177 5.62503C15.5575 6.49896 15.5658 6.76136 15.5658 8.97381C15.5658 11.1863 15.5575 11.4487 15.5177 12.3226C15.4807 13.1302 15.3464 13.5688 15.2321 13.8611C15.0995 14.221 14.8879 14.5466 14.6128 14.814C14.3455 15.0891 14.0199 15.3007 13.6599 15.4333C13.3677 15.5471 12.929 15.6819 12.1214 15.7189C11.2475 15.7586 10.9856 15.7669 8.77264 15.7669C6.55964 15.7669 6.29779 15.7586 5.42386 15.7189C4.61622 15.6819 4.1776 15.5476 3.88537 15.4333C3.52545 15.3006 3.19982 15.089 2.93245 14.814C2.65744 14.5466 2.44583 14.221 2.31318 13.8611C2.19938 13.5688 2.06459 13.1302 2.02758 12.3226C1.98781 11.4487 1.97952 11.1863 1.97952 8.97381C1.97952 6.76136 1.98781 6.49896 2.02758 5.62503C2.06459 4.8174 2.19883 4.37877 2.31318 4.08654C2.46289 3.69985 2.64298 3.42364 2.93245 3.13362C3.19979 2.85854 3.52542 2.64692 3.88537 2.51435C4.1776 2.40056 4.61622 2.26577 5.42386 2.22875C6.29779 2.18898 6.56019 2.18069 8.77264 2.18069Z" fill="white"/>
<path fill-rule="evenodd" clip-rule="evenodd" d="M8.77265 11.7387C8.40956 11.7387 8.05003 11.6672 7.71458 11.5282C7.37913 11.3893 7.07434 11.1856 6.8176 10.9289C6.56085 10.6721 6.35719 10.3673 6.21825 10.0319C6.0793 9.69643 6.00778 9.33689 6.00778 8.97381C6.00778 8.61072 6.0793 8.25119 6.21825 7.91574C6.35719 7.58029 6.56085 7.27549 6.8176 7.01875C7.07434 6.76201 7.37913 6.55835 7.71458 6.41941C8.05003 6.28046 8.40956 6.20894 8.77265 6.20894C9.50594 6.20894 10.2092 6.50024 10.7277 7.01875C11.2462 7.53727 11.5375 8.24052 11.5375 8.97381C11.5375 9.7071 11.2462 10.4104 10.7277 10.9289C10.2092 11.4474 9.50594 11.7387 8.77265 11.7387ZM8.77265 4.71465C7.64305 4.71465 6.55971 5.16338 5.76097 5.96213C4.96222 6.76087 4.51349 7.84421 4.51349 8.97381C4.51349 10.1034 4.96222 11.1867 5.76097 11.9855C6.55971 12.7842 7.64305 13.233 8.77265 13.233C9.90225 13.233 10.9856 12.7842 11.7843 11.9855C12.5831 11.1867 13.0318 10.1034 13.0318 8.97381C13.0318 7.84421 12.5831 6.76087 11.7843 5.96213C10.9856 5.16338 9.90225 4.71465 8.77265 4.71465ZM14.2709 4.63731C14.2709 4.90432 14.1648 5.1604 13.976 5.34921C13.7872 5.53802 13.5311 5.64409 13.2641 5.64409C12.9971 5.64409 12.741 5.53802 12.5522 5.34921C12.3634 5.1604 12.2573 4.90432 12.2573 4.63731C12.2573 4.37029 12.3634 4.11421 12.5522 3.9254C12.741 3.73659 12.9971 3.63052 13.2641 3.63052C13.5311 3.63052 13.7872 3.73659 13.976 3.9254C14.1648 4.11421 14.2709 4.37029 14.2709 4.63731Z" fill="white"/>
</svg>
