<svg width="156" height="123" viewBox="0 0 156 123" fill="none" xmlns="http://www.w3.org/2000/svg">
<path d="M111.471 109.082C111.078 108.034 110.03 107.379 108.589 107.379C107.017 107.379 106.099 108.296 105.706 109.344C104.134 111.179 104.789 114.979 108.065 114.979C108.196 114.979 108.196 114.979 108.327 114.979C108.851 115.241 109.375 115.503 110.03 115.503C113.699 115.241 114.223 110.262 111.471 109.082Z" fill="white"/>
<path d="M19.3625 57.8472L24.4723 25.7435L60.3726 7.79158L70.5924 0.84668H123.788L130.732 28.2332L138.593 41.9919L124.705 76.9785L82.5155 111.31C82.5155 111.31 60.3726 118.386 60.5036 117.469C60.5036 116.551 21.0658 84.4475 21.0658 84.4475L14.6456 63.2197L19.3625 57.8472Z" fill="white" stroke="white" stroke-width="0.828631" stroke-miterlimit="10"/>
<path d="M44.7809 1.50186C45.305 0.977715 45.9601 0.84668 46.6152 0.84668C54.6076 0.84668 62.731 0.84668 70.7234 0.84668C71.3785 0.84668 72.2957 0.977721 72.5577 1.76394C72.8198 2.15704 72.5577 2.68118 72.4267 3.20533C71.7716 5.43294 71.2475 7.52951 70.7234 9.75712C69.5442 13.9503 68.365 18.2744 67.1858 22.4676C66.7927 25.0883 65.7445 27.709 65.0894 30.3297C65.0894 31.247 64.0412 31.378 63.2551 31.378C58.0142 31.378 52.7733 31.378 47.5324 31.378C46.4842 31.378 45.8291 30.4608 45.0429 29.8056C43.3396 27.9711 41.2432 26.2676 39.54 24.4331C37.3126 26.5297 34.8231 28.4952 32.4647 30.5918C31.9406 31.1159 31.2855 31.509 30.4994 31.509C24.7344 31.509 19.1004 31.509 13.3354 31.509C12.1562 31.6401 11.6321 30.1987 12.2872 29.4125C12.9423 28.7573 13.5975 28.1021 14.2526 27.578C24.6034 18.7986 34.6921 10.0192 44.7809 1.50186ZM45.9601 2.026C35.0852 11.3295 24.2103 20.7641 13.3354 30.0677C19.3624 30.0677 25.2585 30.0677 31.2855 30.0677C34.168 27.578 37.0505 25.0883 39.933 22.7297C42.4225 25.2193 44.9119 27.709 47.5324 30.0677C53.0353 30.0677 58.5383 30.0677 64.0412 30.0677C66.6617 20.7641 69.0201 11.3295 71.6405 2.026C62.993 2.026 54.4766 2.026 45.9601 2.026Z" fill="#FDFDFD" stroke="white" stroke-width="0.828631" stroke-miterlimit="10"/>
<path d="M74.9161 2.02589C75.0471 0.977602 76.2263 0.715528 77.0125 0.846564C90.1148 0.846564 103.217 0.846564 116.319 0.846564C117.368 0.715528 118.154 2.02589 117.63 2.94314C116.843 5.30179 116.319 7.79147 115.533 10.1501C115.402 10.6743 114.878 11.0674 114.354 11.0674C106.493 11.0674 98.5002 11.0674 90.6388 11.0674C90.5078 11.7225 90.3768 12.2467 90.2458 12.9019C97.8451 12.9019 105.575 12.9019 113.175 12.9019C114.223 12.9019 115.009 14.0812 114.616 14.9984C113.961 17.4881 113.175 19.8468 112.52 22.3364C112.389 23.2537 111.471 23.3847 110.685 23.3847C102.824 23.3847 94.9626 23.3847 87.1012 23.3847C86.7082 25.7434 85.922 28.102 85.3979 30.4607C85.1359 31.1158 84.3498 31.1158 83.6946 31.2469C78.7158 31.2469 73.6059 31.2469 68.627 31.2469C67.7099 31.2469 67.1858 30.4606 67.3168 29.6744C67.7099 27.7089 68.496 25.8744 68.7581 23.9089C69.9373 19.5847 71.2475 15.1295 72.4267 10.8053C73.0818 7.79147 74.13 5.03971 74.9161 2.02589ZM76.0953 2.15692C75.5713 4.6466 74.7851 7.00525 74.261 9.49493C72.4267 16.3088 70.5924 23.2537 68.7581 30.0675C73.999 30.0675 79.2399 30.0675 84.4808 30.0675C85.1359 27.4468 85.9221 24.8261 86.5772 22.2054C94.9626 22.2054 103.217 22.2054 111.602 22.2054C112.258 19.5847 112.913 16.964 113.699 14.3433C105.313 14.3433 97.059 14.3433 88.6735 14.3433C89.0666 12.9019 89.4597 11.3294 89.8527 9.88803C98.1072 9.88803 106.362 9.88803 114.747 9.88803C115.402 7.26732 116.057 4.6466 116.843 2.02589C103.741 2.02589 90.6388 2.02589 77.5366 2.02589C76.8814 2.02589 76.4884 2.15692 76.0953 2.15692Z" fill="#FDFDFD" stroke="white" stroke-width="0.828631" stroke-miterlimit="10"/>
<path d="M119.857 1.37073C120.381 0.977624 121.036 0.71555 121.691 0.846586C126.539 0.846586 131.387 0.846586 136.235 0.846586C137.152 0.71555 137.938 1.76384 137.676 2.68109C137.283 4.51559 136.628 6.3501 136.235 8.1846C135.056 12.3777 134.138 16.7019 132.828 20.8951C139.641 20.8951 146.323 20.8951 153.137 20.8951C153.923 20.764 154.316 21.5502 154.578 22.2054C154.447 23.2537 153.661 23.7778 153.006 24.433C151.04 26.1365 149.075 27.971 147.11 29.6745C146.192 30.3296 145.406 31.64 144.096 31.3779C134.007 31.3779 123.919 31.3779 113.961 31.3779C113.175 31.3779 112.258 30.9848 112.389 30.0676C112.913 27.3158 113.699 24.5641 114.485 21.8123C115.14 19.3226 115.795 16.833 116.581 14.3433C116.843 12.5088 117.498 10.6743 118.023 8.83978C118.547 6.3501 119.202 3.86041 119.857 1.37073ZM120.905 2.02591C118.416 11.3294 115.926 20.764 113.437 30.0676C123.526 30.0676 133.614 30.0676 143.703 30.0676C144.096 30.0676 144.62 30.0676 144.882 29.6745C147.634 27.1848 150.516 24.6951 153.399 22.2054C145.93 22.2054 138.593 22.2054 131.125 22.2054C132.959 15.5226 134.793 8.70873 136.497 2.02591C131.387 2.02591 126.146 2.02591 120.905 2.02591Z" fill="#FDFDFD" stroke="white" stroke-width="0.828631" stroke-miterlimit="10"/>
<path d="M40.457 22.2052C44.7808 18.5362 48.9735 14.7362 53.2972 11.1982C52.2491 14.8672 51.3319 18.5362 50.2837 22.2052C47.0082 22.2052 43.7326 22.2052 40.457 22.2052Z" fill="#FDFDFD" stroke="white" stroke-width="0.828631" stroke-miterlimit="10"/>
<path d="M19.8866 32.8196C20.2796 32.2954 20.9348 32.2954 21.4589 32.2954C61.6829 32.2954 101.907 32.2954 142.262 32.2954C142.786 32.2954 143.31 32.4264 143.834 32.6885C144.227 33.2127 144.096 33.8678 143.965 34.523C143.048 39.2403 142.262 43.9576 140.69 48.5438C139.379 52.2128 138.331 56.0129 136.628 59.5509C135.842 61.2543 135.056 62.9578 134.401 64.6612C132.173 68.7234 129.946 72.9165 127.194 76.7165C126.015 78.6821 124.574 80.3855 123.133 82.22C120.381 85.889 117.106 89.296 113.83 92.5719C112.127 94.0133 110.685 95.7167 108.851 97.0271C107.148 98.3374 105.707 99.9099 103.872 101.089C100.597 103.841 96.797 106.069 93.2593 108.558C90.5079 109.869 88.0185 111.703 85.267 113.013C83.3016 113.8 81.4673 114.848 79.633 115.765C76.7505 117.207 73.737 117.993 70.7234 119.303C67.8409 120.482 64.8274 121.4 61.6829 121.793C56.704 120.745 52.1182 118.386 47.5324 116.158C45.8291 115.241 44.2568 114.062 42.5535 113.144C39.278 110.917 36.1334 108.558 33.2509 105.806C30.6305 103.317 28.2721 100.434 26.0447 97.5512C24.2103 94.7995 22.376 92.0477 21.0658 89.0339C19.8866 86.6753 18.9694 84.1856 18.0523 81.6959C17.9212 81.3028 18.1833 80.9097 18.1833 80.5166C19.3625 79.7304 20.9348 79.9924 22.245 79.8614C23.2932 79.5993 24.3414 79.3372 25.3896 79.8614C26.1757 80.7786 26.4377 81.958 26.8308 83.0063C27.748 85.758 29.3203 88.2477 30.8925 90.6063C32.2028 92.965 34.0371 95.0615 35.7403 97.1581C37.4436 98.9926 39.1469 100.696 40.9813 102.269C41.3743 102.531 41.6364 102.924 41.8984 103.317L42.0295 103.448C42.1605 103.448 42.4225 103.579 42.5535 103.71C43.3397 104.627 44.5189 105.151 45.436 105.806C46.6152 106.593 47.7945 107.51 49.1047 108.034C46.2222 106.2 43.3397 104.234 40.7192 101.875C34.2991 96.2409 29.3202 89.0339 26.5688 80.9097C26.4377 79.8614 27.4859 79.5993 28.2721 79.5993C32.5958 79.4683 36.7885 79.7304 41.1123 79.7304C42.2915 80.1235 43.6017 79.8614 44.7809 80.1235C50.808 80.9097 56.835 81.958 62.731 83.5304C64.8274 83.6614 66.7928 84.7097 68.8891 85.2339C70.7235 85.889 72.5578 86.5442 74.3921 87.1994C77.9297 88.2477 81.0742 90.0822 84.3498 91.6546C85.9221 92.1788 87.1013 93.227 88.5426 93.8822C89.9838 94.7995 91.5561 95.7167 92.9973 96.634C93.7835 97.0271 93.7834 98.0754 93.3904 98.7305C93.7834 98.2064 94.3075 97.8133 94.8316 97.5512C95.7488 97.5512 94.5696 97.1581 94.3076 97.0271C91.9491 94.6684 89.3287 92.8339 86.5772 90.7374C81.2053 87.0684 75.5713 83.5304 69.6752 80.9097C66.9238 79.4683 64.1723 78.1579 61.2898 77.2407C57.4901 75.6683 53.5594 74.2269 49.4977 73.3096C46.2222 72.3924 42.9466 71.6061 39.54 70.951C38.4918 70.8199 38.3608 69.2475 39.0159 68.7234C40.1951 67.6751 41.6364 67.544 43.0776 67.0199C47.6634 65.5785 52.5113 65.3164 57.2281 65.8406C59.5865 66.2337 62.076 66.3647 64.3033 67.282C61.9449 63.744 60.2416 59.6819 60.2416 55.4887C60.1106 52.4749 61.0278 49.3301 62.9931 46.9714C63.6482 46.3162 64.3033 45.6611 64.8274 44.8748C67.0548 43.3024 69.4132 41.73 72.1647 41.0748C77.7987 39.3713 84.3498 40.1576 89.0666 43.8266C91.5561 45.7921 93.3904 48.6749 94.1765 51.8197C95.2247 52.868 95.2247 54.4405 95.2247 55.8819C95.0937 56.9301 93.7835 56.6681 92.9973 57.0612C92.8663 57.4543 92.8663 57.8474 92.7353 58.1095C92.9973 58.8957 93.2594 59.5508 93.6524 60.3371C95.0937 60.206 96.4039 60.5991 97.8451 60.7302C98.6313 61.2543 99.4174 62.0405 99.5485 62.9578C99.9415 65.3164 100.204 67.6751 100.597 70.0337C100.728 70.951 100.466 72.2613 99.2864 72.2613C97.059 71.8682 94.7006 71.4751 92.4732 70.8199C92.0802 71.3441 91.5561 71.8682 90.901 72.1303C93.3904 72.1303 95.8798 71.9992 98.3693 72.3924C102.038 72.9165 105.707 73.9648 108.72 76.1924C110.161 77.3717 111.341 78.8131 111.865 80.5166C112.127 81.0407 111.865 81.5649 111.603 81.958C108.589 85.758 104.92 89.0339 101.252 92.3098C101.514 92.3098 101.907 92.1788 102.169 91.9167C102.955 90.9994 103.872 90.2132 104.92 89.427C107.41 86.9373 110.03 84.4476 112.389 81.8269C118.547 75.0131 123.657 67.413 127.587 59.1577C129.029 55.7508 130.732 52.3439 131.78 48.6749C132.566 45.6611 133.614 42.6472 134.401 39.6334C98.1072 39.6334 61.8139 39.6334 25.5206 39.6334C24.4724 43.0403 23.8173 46.7093 23.2932 50.2473C23.1622 51.0335 22.7691 51.8197 21.8519 51.6887C20.1486 51.6887 18.3143 51.9508 16.611 52.3439C15.5628 52.4749 15.3008 51.2956 15.3008 50.5094C15.6938 47.2335 16.349 43.9576 16.8731 40.8127C18.3143 38.4541 18.9694 35.5713 19.8866 32.8196ZM20.8038 33.4747C19.2315 39.3713 17.7902 45.399 17.0041 51.4266C17.3972 51.2956 17.9213 51.2956 18.3143 51.1646C19.7556 51.0335 21.0658 50.9025 22.507 50.7715C23.0311 46.7093 23.9483 42.7783 24.8655 38.8472C31.1546 38.7162 37.4436 38.8472 43.7327 38.8472C74.6541 38.8472 105.444 38.8472 136.366 38.8472C135.318 43.5645 133.876 48.2818 132.173 52.737C126.277 68.5923 115.926 82.6131 102.955 93.3581C91.6871 102.662 78.5848 109.738 64.6964 114.193C63.5172 114.455 62.207 115.241 61.0278 114.717C53.2974 112.096 45.9601 108.165 39.8021 102.662C33.1199 96.765 27.879 89.296 24.8655 81.0407C23.0312 81.1718 21.1968 81.4338 19.4935 81.5649C21.1968 86.9373 23.6863 91.9167 26.9618 96.5029C32.9889 105.02 41.3743 111.703 50.6769 116.289C54.2146 117.993 57.8832 119.565 61.6829 120.614C65.3515 119.827 69.0201 118.517 72.5578 117.338C93.1283 109.475 111.865 95.9788 124.705 78.0269C134.138 64.9233 140.297 49.5921 142.786 33.6058C102.169 33.4747 61.5518 33.4747 20.8038 33.4747ZM66.0066 46.1852C63.2551 48.5438 61.6829 52.0818 61.8139 55.7508C61.9449 60.075 63.7792 64.2681 66.1376 67.9371C66.7928 67.9371 67.4479 67.8061 68.103 67.8061C68.234 68.4613 68.234 69.1165 68.365 69.7716C65.0894 68.7234 61.6829 67.9371 58.2763 67.544C52.1182 66.7578 45.5671 67.1509 40.0641 70.1647C50.5459 71.9992 60.8967 75.4062 70.4614 79.8614C79.3709 84.1856 88.0184 89.427 95.3557 96.2409C100.859 92.0477 106.1 87.4615 110.685 82.22C111.472 81.5649 110.816 80.5166 110.423 79.8614C108.458 76.8476 105.051 75.4062 101.645 74.751C96.4039 73.5717 91.032 73.7027 85.7911 73.9648C86.7082 72.5234 88.4115 71.9992 89.9838 71.7372C90.9009 71.6061 91.8181 70.951 92.2112 70.0337C94.7006 70.5579 97.3211 71.213 99.8105 71.4751C99.6795 70.4268 99.5484 69.5096 99.2864 68.4613C99.0244 66.8889 98.8933 65.1854 98.6313 63.613C98.5003 63.0888 98.1072 62.5647 97.5831 62.4336C96.1419 62.0405 94.5696 62.1716 93.1284 61.9095C92.6043 60.9922 92.3422 59.944 91.9491 59.0267C91.6871 58.5026 92.0802 57.9784 92.2112 57.4543C90.7699 57.3232 89.1977 57.5853 87.8874 58.2405C88.6736 57.4543 89.5907 56.6681 90.6389 56.537C91.9491 56.275 93.2594 56.406 94.4386 56.275C94.4386 55.6198 94.3076 54.8336 94.3076 54.1784C93.7835 53.6542 93.2594 53.1301 93.1284 52.3439C92.7353 50.5094 91.8181 48.8059 90.6389 47.3645C88.2805 44.4817 84.6118 43.0403 80.9432 42.5162C75.7023 41.4679 70.0683 42.6472 66.0066 46.1852ZM31.0235 87.4615C37.1816 99.1236 48.1875 107.772 60.6347 111.834C61.4208 112.096 62.207 112.489 62.9931 112.096C73.0819 108.82 82.9086 104.627 91.8181 98.8616C92.2112 98.5995 92.6042 98.3374 92.7353 98.0754C81.9914 90.7374 69.4132 86.1511 56.835 83.5304C47.4014 81.6959 37.8367 80.6476 28.141 81.0407C28.7962 83.1373 29.9753 85.3649 31.0235 87.4615Z" fill="#FDFDFD" stroke="white" stroke-width="0.828631" stroke-miterlimit="10"/>
<path d="M20.2796 52.8678C23.4241 52.6057 26.6997 52.7367 29.7132 53.654C32.3336 54.5712 35.0851 55.7506 37.1815 57.7161C38.7538 58.8954 39.933 60.4678 40.7191 62.3023C40.9812 64.1368 39.8019 65.8403 39.0158 67.2817C37.9676 68.461 36.9194 69.7714 35.6092 70.8197C31.9406 74.2266 27.0928 76.0611 22.3759 76.8473C18.8383 77.1094 15.3007 77.1094 11.8941 75.9301C8.48751 74.8818 5.08092 73.0473 2.72251 70.2955C1.80535 69.5093 1.28125 68.199 1.28125 67.0196C1.67432 64.0058 3.77067 61.5161 5.60499 59.2885C9.53567 55.2264 14.9076 53.3919 20.2796 52.8678ZM11.501 56.4057C7.43931 58.3713 4.03273 61.7782 2.59148 66.1024C2.19841 67.5438 3.2466 68.7231 4.03274 69.7714C6.91524 72.7852 10.8459 74.4887 14.9076 75.2749C21.1967 76.4542 27.8789 75.0128 32.9887 71.3438C36.0023 69.2472 38.7538 66.3645 39.6709 62.6955C39.2778 61.5161 38.4917 60.5989 37.7056 59.6816C34.299 56.0126 29.3201 54.1781 24.4723 54.0471C20.1485 53.9161 15.5627 54.5712 11.501 56.4057Z" fill="#FDFDFD" stroke="white" stroke-width="0.828631" stroke-miterlimit="10"/>
<path d="M92.2112 66.7577C92.0801 65.5784 91.8181 64.399 92.0801 63.2197C92.7353 64.7922 92.9973 66.6267 93.5214 68.1991C93.1283 68.068 92.7353 68.0681 92.3422 67.937C92.2112 67.4129 92.2112 67.0198 92.2112 66.7577Z" fill="#FDFDFD" stroke="white" stroke-width="0.828631" stroke-miterlimit="10"/>
<path d="M94.0455 63.4814C94.9627 63.6125 96.0109 63.4814 96.666 64.1366C96.797 65.7091 97.0591 67.2815 97.3211 68.7229C96.666 68.5918 96.0109 68.4608 95.3558 68.3298C94.9627 66.8884 94.5696 65.1849 94.0455 63.4814Z" fill="#FDFDFD" stroke="white" stroke-width="0.828631" stroke-miterlimit="10"/>
<path d="M45.96 2.02588C54.4765 2.02588 62.993 2.02588 71.5095 2.02588C68.889 11.3294 66.5306 20.764 63.9101 30.0675C58.4072 30.0675 52.9042 30.0675 47.4013 30.0675C44.7808 27.7089 42.2914 25.2192 39.802 22.7295C36.9195 25.0882 34.0369 27.7089 31.1544 30.0675C25.1274 30.0675 19.2314 30.0675 13.2043 30.0675C24.2103 20.764 35.0852 11.3294 45.96 2.02588ZM40.4571 22.2054C43.7326 22.2054 47.1392 22.2054 50.4148 22.2054C51.463 18.5364 52.3801 14.8674 53.4283 11.1984C48.9735 14.8674 44.7808 18.5364 40.4571 22.2054Z" fill="#C90016" stroke="white" stroke-width="0.828631" stroke-miterlimit="10"/>
<path d="M31.0233 87.4611C29.8441 85.3645 28.796 83.1369 28.1409 80.9093C37.7055 80.6472 47.4012 81.5645 56.8349 83.399C69.5441 86.0197 81.9912 90.6059 92.7351 97.9439C92.4731 98.337 92.08 98.4681 91.818 98.7301C82.9084 104.627 73.0817 108.82 62.9929 111.965C62.2068 112.358 61.4206 111.965 60.6345 111.703C48.1873 107.772 37.1814 99.1232 31.0233 87.4611Z" fill="#C90016" stroke="white" stroke-width="0.828631" stroke-miterlimit="10"/>
<path d="M76.0953 2.15691C76.4883 2.15691 76.8814 2.02588 77.4055 2.02588C90.5078 2.02588 103.61 2.02588 116.712 2.02588C116.057 4.64659 115.271 7.26731 114.616 9.88802C106.362 10.0191 98.1071 9.88802 89.7216 9.88802C89.3286 11.3294 88.9355 12.9018 88.5424 14.3432C96.9279 14.3432 105.182 14.3432 113.568 14.3432C112.913 16.964 112.127 19.5847 111.471 22.2054C103.086 22.3364 94.8315 22.2054 86.4461 22.2054C85.7909 24.8261 85.1358 27.4468 84.3497 30.0675C79.1088 30.0675 73.8679 30.0675 68.627 30.0675C70.4613 23.2537 72.2956 16.3088 74.1299 9.49492C74.785 7.00524 75.5712 4.64659 76.0953 2.15691Z" fill="#002D62" stroke="white" stroke-width="0.828631" stroke-miterlimit="10"/>
<path d="M120.905 2.02588C126.146 2.02588 131.387 2.02588 136.628 2.02588C134.794 8.7087 133.09 15.5226 131.256 22.2054C138.724 22.2054 146.062 22.2054 153.53 22.2054C150.778 24.6951 147.896 27.1847 145.013 29.6744C144.751 30.0675 144.227 30.0675 143.834 30.0675C133.745 30.0675 123.657 30.0675 113.568 30.0675C115.926 20.764 118.416 11.4605 120.905 2.02588Z" fill="#002D62" stroke="white" stroke-width="0.828631" stroke-miterlimit="10"/>
<path d="M20.8037 33.4741C61.4208 33.4741 102.169 33.4741 142.786 33.4741C140.296 49.4605 134.138 64.7917 124.705 77.8952C111.733 95.9782 92.9973 109.344 72.5577 117.206C69.0201 118.516 65.3515 119.827 61.6828 120.482C57.8832 119.434 54.2145 117.992 50.6769 116.158C41.3742 111.571 32.9888 104.889 26.9618 96.3713C23.6862 91.785 21.1968 86.8057 19.4935 81.4332C21.3278 81.3022 23.1621 81.1711 24.8654 80.9091C27.8789 89.2953 33.1198 96.7644 39.802 102.53C45.9601 108.033 53.2974 111.965 61.0277 114.585C62.2069 115.109 63.5171 114.323 64.6963 114.061C78.5847 109.606 91.687 102.53 102.955 93.2264C115.926 82.4815 126.277 68.4607 132.173 52.6053C133.876 48.0191 135.318 43.4328 136.366 38.7156C105.444 38.7156 74.6541 38.7156 43.7327 38.7156C37.4436 38.7156 31.1545 38.7156 24.8654 38.7156C23.9482 42.6466 23.0311 46.5777 22.507 50.6398C21.0657 50.7708 19.7555 50.9019 18.3143 51.0329C17.9212 51.1639 17.3971 51.1639 17.004 51.295C17.7902 45.3984 19.2314 39.3707 20.8037 33.4741Z" fill="#002D62" stroke="white" stroke-width="0.828631" stroke-miterlimit="10"/>
<path d="M66.0066 46.1848C70.0683 42.6469 75.7023 41.3365 80.9432 41.9917C84.6118 42.5158 88.1494 43.9572 90.6388 46.84C91.8181 48.2814 92.7352 49.9849 93.1283 51.8194C93.2593 52.6056 93.7834 53.1297 94.3075 53.6539C94.4385 54.3091 94.4385 55.0953 94.4385 55.7505C93.1283 55.8815 91.8181 55.8815 90.6388 56.0125C89.5907 56.2746 88.6735 56.9298 87.8874 57.716C89.3287 57.1919 90.7699 56.7987 92.2111 56.9298C92.0801 57.4539 91.687 57.9781 91.9491 58.5022C92.3421 59.5505 92.6042 60.4677 93.1283 61.385C94.5696 61.7781 96.1418 61.6471 97.5831 61.9091C98.1072 62.0402 98.6312 62.4333 98.6312 63.0885C98.8933 64.6609 99.1553 66.3644 99.4174 67.9368C99.5484 68.9851 99.6794 69.9023 99.9415 70.9506C97.321 70.6885 94.8316 70.0334 92.3422 69.5092C92.0801 70.5575 91.1629 71.0816 90.1148 71.2127C88.5425 71.4748 86.8392 71.9989 85.9221 73.4403C91.163 73.1782 96.6659 73.0472 101.776 74.2265C105.051 75.0127 108.589 76.4541 110.554 79.3369C110.947 79.9921 111.603 81.0404 110.816 81.6955C106.362 86.937 101.121 91.5232 95.4867 95.7164C88.1494 89.0335 79.5019 83.6611 70.5924 79.3369C60.8967 74.7506 50.6769 71.4748 40.1951 69.6402C45.698 66.6264 52.3802 66.2333 58.4073 67.0195C61.8139 67.4126 65.2204 68.3299 68.496 69.2471C68.496 68.592 68.365 67.9368 68.234 67.2816C67.5789 67.2816 66.9238 67.4126 66.2686 67.4126C63.9102 63.7436 62.0759 59.6815 61.9449 55.2263C61.8138 52.2125 63.3861 48.5435 66.0066 46.1848ZM92.2111 66.7575C92.2111 67.1506 92.2111 67.5437 92.3422 67.9368C92.7352 68.0678 93.1283 68.0678 93.5214 68.1989C92.9973 66.4954 92.7352 64.7919 92.0801 63.2195C91.687 64.2678 92.0801 65.5781 92.2111 66.7575ZM94.0454 63.4816C94.4385 65.185 94.9626 66.7575 95.3557 68.4609C96.0108 68.592 96.6659 68.723 97.321 68.854C97.059 67.2816 96.7969 65.7092 96.6659 64.2678C96.0108 63.6126 94.9626 63.7436 94.0454 63.4816Z" fill="#002D62" stroke="white" stroke-width="0.828631" stroke-miterlimit="10"/>
<path d="M11.501 56.4059C15.5627 54.4404 20.0175 53.9162 24.4723 54.0473C29.3201 54.1783 34.299 56.1438 37.7056 59.6818C38.4917 60.599 39.2778 61.5163 39.6709 62.6956C38.7538 66.3646 35.8712 69.1164 32.9887 71.344C27.7478 75.013 21.0657 76.3233 14.9076 75.275C10.8459 74.4888 6.91524 72.6543 4.03273 69.7715C3.2466 68.7233 2.06738 67.5439 2.59147 66.1025C4.03273 61.7784 7.4393 58.3714 11.501 56.4059Z" fill="#002D62" stroke="white" stroke-width="0.828631" stroke-miterlimit="10"/>
<path d="M107.41 113.406V109.082H109.506C109.637 109.082 109.899 109.082 110.03 109.213C110.292 109.344 110.423 109.475 110.554 109.606C110.685 109.868 110.816 109.999 110.816 110.392C110.816 110.655 110.685 110.917 110.554 111.179C110.423 111.441 110.161 111.572 110.03 111.703C109.768 111.834 109.637 111.834 109.375 111.834H107.803V111.179H109.113C109.244 111.179 109.375 111.179 109.506 111.048C109.637 110.917 109.768 110.786 109.768 110.524C109.768 110.261 109.637 110.13 109.506 109.999C109.375 109.868 109.244 109.868 109.113 109.868H108.196V113.406H107.41ZM110.03 111.31L111.078 113.275H110.03L108.982 111.31H110.03ZM109.113 115.896C108.458 115.896 107.934 115.765 107.279 115.503C106.755 115.241 106.231 114.979 105.837 114.455C105.444 114.062 105.051 113.537 104.789 113.013C104.527 112.489 104.396 111.834 104.396 111.179C104.396 110.524 104.527 109.999 104.789 109.344C105.051 108.82 105.313 108.296 105.837 107.903C106.231 107.51 106.755 107.117 107.279 106.855C107.803 106.592 108.458 106.461 109.113 106.461C109.768 106.461 110.292 106.592 110.947 106.855C111.471 107.117 111.996 107.379 112.389 107.903C112.782 108.296 113.175 108.82 113.437 109.344C113.699 109.868 113.83 110.524 113.83 111.179C113.83 111.834 113.699 112.358 113.437 113.013C113.175 113.537 112.913 114.062 112.389 114.455C111.996 114.848 111.471 115.241 110.947 115.503C110.292 115.765 109.637 115.896 109.113 115.896ZM109.113 114.848C109.768 114.848 110.292 114.717 110.816 114.324C111.34 114.062 111.734 113.537 112.127 113.013C112.389 112.489 112.651 111.834 112.651 111.31C112.651 110.655 112.52 110.13 112.127 109.606C111.865 109.082 111.34 108.689 110.816 108.296C110.292 108.034 109.637 107.772 109.113 107.772C108.589 107.772 107.934 107.903 107.41 108.296C106.886 108.558 106.493 109.082 106.1 109.606C105.838 110.13 105.575 110.786 105.575 111.31C105.575 111.965 105.706 112.489 106.1 113.013C106.362 113.537 106.886 113.93 107.41 114.324C107.803 114.586 108.458 114.848 109.113 114.848Z" fill="#002D62" stroke="white" stroke-width="0.828631" stroke-miterlimit="10"/>
<path d="M107.41 113.406V109.082H109.506C109.637 109.082 109.899 109.082 110.03 109.213C110.292 109.344 110.423 109.475 110.554 109.606C110.685 109.868 110.816 109.999 110.816 110.392C110.816 110.655 110.685 110.917 110.554 111.179C110.423 111.441 110.161 111.572 110.03 111.703C109.768 111.834 109.637 111.834 109.375 111.834H107.803V111.179H109.113C109.244 111.179 109.375 111.179 109.506 111.048C109.637 110.917 109.768 110.786 109.768 110.524C109.768 110.261 109.637 110.13 109.506 109.999C109.375 109.868 109.244 109.868 109.113 109.868H108.196V113.406H107.41ZM110.03 111.31L111.078 113.275H110.03L108.982 111.31H110.03ZM109.113 115.896C108.458 115.896 107.934 115.765 107.279 115.503C106.755 115.241 106.231 114.979 105.837 114.455C105.444 114.062 105.051 113.537 104.789 113.013C104.527 112.489 104.396 111.834 104.396 111.179C104.396 110.524 104.527 109.999 104.789 109.344C105.051 108.82 105.313 108.296 105.837 107.903C106.231 107.51 106.755 107.117 107.279 106.855C107.803 106.592 108.458 106.461 109.113 106.461C109.768 106.461 110.292 106.592 110.947 106.855C111.471 107.117 111.996 107.379 112.389 107.903C112.782 108.296 113.175 108.82 113.437 109.344C113.699 109.868 113.83 110.524 113.83 111.179C113.83 111.834 113.699 112.358 113.437 113.013C113.175 113.537 112.913 114.062 112.389 114.455C111.996 114.848 111.471 115.241 110.947 115.503C110.292 115.765 109.637 115.896 109.113 115.896ZM109.113 114.848C109.768 114.848 110.292 114.717 110.816 114.324C111.34 114.062 111.734 113.537 112.127 113.013C112.389 112.489 112.651 111.834 112.651 111.31C112.651 110.655 112.52 110.13 112.127 109.606C111.865 109.082 111.34 108.689 110.816 108.296C110.292 108.034 109.637 107.772 109.113 107.772C108.589 107.772 107.934 107.903 107.41 108.296C106.886 108.558 106.493 109.082 106.1 109.606C105.838 110.13 105.575 110.786 105.575 111.31C105.575 111.965 105.706 112.489 106.1 113.013C106.362 113.537 106.886 113.93 107.41 114.324C107.803 114.586 108.458 114.848 109.113 114.848Z" fill="#002D62"/>
</svg>
