<svg width="12" height="17" viewBox="0 0 12 17" fill="none" xmlns="http://www.w3.org/2000/svg">
<path fill-rule="evenodd" clip-rule="evenodd" d="M0.374948 16.7427H2.78702L2.78853 16.7443C3.00781 16.7443 3.22709 16.744 3.44637 16.7436C4.03111 16.7426 4.61586 16.7416 5.2006 16.7477C5.39441 16.7494 5.52917 16.6769 5.65182 16.51C6.58055 15.2451 7.51365 13.9826 8.44647 12.7205C8.6117 12.4969 8.77692 12.2734 8.94211 12.0499C9.25067 11.6316 9.55945 11.2138 9.8682 10.7961C10.3897 10.0904 10.9111 9.38491 11.4314 8.67738C11.6525 8.37555 11.6494 8.3688 11.4193 8.05685C10.8161 7.23993 10.213 6.42317 9.60991 5.60647C8.27351 3.79673 6.93732 1.98729 5.60185 0.177055C5.51555 0.0590184 5.41561 0 5.27934 0H0.321953C0.202333 0 0.0917992 0.0219211 0.0312325 0.150075C-0.0308483 0.284974 0.00852003 0.411442 0.0872567 0.521048C0.205627 0.688691 0.328371 0.853899 0.450843 1.01874C0.472501 1.04789 0.494151 1.07703 0.515766 1.10617C0.813718 1.50979 1.11163 1.91351 1.40955 2.31725C2.8467 4.26483 4.28423 6.21295 5.72904 8.15296C5.86683 8.34013 5.84261 8.44805 5.71996 8.61162C5.29224 9.18204 4.86884 9.75487 4.44529 10.3279C4.25408 10.5866 4.06284 10.8453 3.87116 11.1039C3.24672 11.9451 2.62266 12.7863 1.99859 13.6276C1.37422 14.4692 0.749857 15.3108 0.125111 16.1525C0.0282042 16.284 -0.0414475 16.429 0.0282042 16.5943C0.0924959 16.7438 0.225539 16.7433 0.352286 16.7427C0.359868 16.7427 0.367428 16.7427 0.374948 16.7427Z" fill="white"/>
</svg>
