<svg width="9" height="13" viewBox="0 0 9 13" fill="none" xmlns="http://www.w3.org/2000/svg">
<path fill-rule="evenodd" clip-rule="evenodd" d="M0.291044 12.9961H2.16335L2.16452 12.9974C2.33473 12.9974 2.50494 12.9971 2.67515 12.9968C3.12904 12.996 3.58294 12.9952 4.03683 13C4.18727 13.0013 4.29188 12.945 4.38708 12.8154C5.10798 11.8336 5.83227 10.8536 6.55635 9.87395C6.68461 9.70042 6.81285 9.5269 6.94107 9.35339C7.18059 9.02873 7.42027 8.70444 7.65993 8.38017C8.06474 7.83244 8.46949 7.28479 8.87332 6.73559C9.04492 6.5013 9.04257 6.49606 8.86392 6.25392C8.39575 5.6198 7.92758 4.98582 7.45944 4.35188C6.42209 2.94711 5.38491 1.54258 4.34829 0.137434C4.2813 0.0458115 4.20373 0 4.09795 0H0.249907C0.157056 0 0.0712567 0.0170157 0.0242434 0.116492C-0.0239452 0.221204 0.00661345 0.319371 0.0677307 0.40445C0.159613 0.534578 0.254889 0.662817 0.349955 0.790772C0.366766 0.813399 0.383571 0.836018 0.40035 0.858637C0.631627 1.17193 0.86287 1.48531 1.09413 1.7987C2.20967 3.31047 3.32552 4.82264 4.44702 6.32852C4.55397 6.47381 4.53517 6.55758 4.43997 6.68454C4.10796 7.12732 3.77931 7.57196 3.45054 8.01675C3.30212 8.21756 3.15367 8.41839 3.00489 8.6191C2.52018 9.27208 2.03577 9.92506 1.55136 10.578C1.06671 11.2313 0.582057 11.8846 0.097114 12.5379C0.0218928 12.64 -0.0321725 12.7526 0.0218928 12.8809C0.0717975 12.997 0.175068 12.9965 0.273453 12.9961C0.279338 12.9961 0.285206 12.9961 0.291044 12.9961Z" fill="#FFFFFF"/>
</svg>
