<svg width="19" height="14" viewBox="0 0 19 14" fill="none" xmlns="http://www.w3.org/2000/svg">
<path fill-rule="evenodd" clip-rule="evenodd" d="M16.6396 1.03741C17.4245 1.24751 18.0413 1.86427 18.2513 2.64911C18.631 4.07022 18.6325 7.037 18.6325 7.037C18.6325 7.037 18.6325 10.0038 18.2513 11.4249C18.0413 12.2098 17.4245 12.8265 16.6396 13.0366C15.2186 13.4178 9.51756 13.4178 9.51756 13.4178C9.51756 13.4178 3.81662 13.4178 2.3955 13.0366C1.61067 12.8265 0.993904 12.2098 0.783813 11.4249C0.402649 10.0038 0.402649 7.037 0.402649 7.037C0.402649 7.037 0.402649 4.07022 0.783813 2.64911C0.993904 1.86427 1.61067 1.24751 2.3955 1.03741C3.81662 0.65625 9.51756 0.65625 9.51756 0.65625C9.51756 0.65625 15.2186 0.65625 16.6396 1.03741ZM12.4289 7.03726L7.69285 9.77141V4.30306L12.4289 7.03726Z" fill="white"/>
</svg>
