<svg width="17" height="18" viewBox="0 0 17 18" fill="none" xmlns="http://www.w3.org/2000/svg">
<g clip-path="url(#clip0_877_581)">
<path d="M10.0016 10.5018C9.80704 10.7106 9.57244 10.8781 9.31178 10.9942C9.05111 11.1104 8.76972 11.1728 8.4844 11.1779C8.19907 11.1829 7.91566 11.1304 7.65106 11.0235C7.38646 10.9167 7.1461 10.7576 6.94431 10.5558C6.74252 10.354 6.58345 10.1136 6.47657 9.84904C6.36969 9.58444 6.31721 9.30102 6.32224 9.0157C6.32728 8.73038 6.38973 8.44899 6.50587 8.18832C6.62202 7.92766 6.78947 7.69306 6.99825 7.49851M12.7074 13.2077C11.4966 14.1306 10.0222 14.642 8.49992 14.6668C3.54159 14.6668 0.708252 9.00018 0.708252 9.00018C1.58934 7.35819 2.81139 5.92361 4.29242 4.79268L12.7074 13.2077ZM7.01242 3.50351C7.49999 3.38939 7.99917 3.33234 8.49992 3.33351C13.4583 3.33351 16.2916 9.00018 16.2916 9.00018C15.8616 9.80457 15.3488 10.5619 14.7616 11.2598L7.01242 3.50351Z" stroke="#3F5065" stroke-width="1.5" stroke-linecap="round" stroke-linejoin="round"/>
<path d="M0.708252 1.2085L16.2916 16.7918" stroke="#3F5065" stroke-width="1.5" stroke-linecap="round" stroke-linejoin="round"/>
</g>
<defs>
<clipPath id="clip0_877_581">
<rect width="17" height="17" fill="white" transform="translate(0 0.5)"/>
</clipPath>
</defs>
</svg>
