<svg width="22" height="21" viewBox="0 0 22 21" fill="none" xmlns="http://www.w3.org/2000/svg">
<path fill-rule="evenodd" clip-rule="evenodd" d="M11.0973 1.73828C8.73714 1.73828 8.44169 1.74813 7.5148 1.79042C6.58964 1.83271 5.95761 1.97985 5.40495 2.19478C4.82564 2.4126 4.3002 2.75439 3.86572 3.19699C3.42383 3.63097 3.08183 4.15603 2.86351 4.73563C2.64974 5.2883 2.50202 5.9209 2.45973 6.84606C2.41802 7.77238 2.40759 8.06725 2.40759 10.4279C2.40759 12.7886 2.41744 13.0835 2.45973 14.0104C2.50202 14.9356 2.64917 15.5676 2.86409 16.1202C3.08191 16.6996 3.4237 17.225 3.8663 17.6595C4.30029 18.1013 4.82535 18.4433 5.40495 18.6617C5.95761 18.876 6.58964 19.0232 7.5148 19.0655C8.44169 19.1078 8.73714 19.1176 11.0973 19.1176C13.4574 19.1176 13.7528 19.1078 14.6797 19.0655C15.6049 19.0232 16.2369 18.876 16.7896 18.6611C17.3689 18.4433 17.8943 18.1015 18.3288 17.6589C18.7707 17.2249 19.1127 16.6999 19.331 16.1202C19.5453 15.5676 19.6925 14.9356 19.7348 14.0104C19.7771 13.0835 19.7869 12.7881 19.7869 10.4279C19.7869 8.06783 19.7771 7.77238 19.7348 6.84548C19.6925 5.92032 19.5453 5.2883 19.3304 4.73563C19.1123 4.15578 18.7702 3.6305 18.3282 3.19641C17.8942 2.75452 17.3692 2.41252 16.7896 2.1942C16.2369 1.98043 15.6043 1.83271 14.6791 1.79042C13.7528 1.74871 13.4579 1.73828 11.0973 1.73828ZM11.0973 3.30416C13.4174 3.30416 13.6926 3.31285 14.609 3.35456C15.456 3.39337 15.916 3.53414 16.2224 3.65406C16.6279 3.81105 16.9176 3.99991 17.2217 4.30347C17.5259 4.60761 17.7141 4.89726 17.8711 5.30278C17.9905 5.60924 18.1318 6.06921 18.1706 6.91616C18.2123 7.83263 18.221 8.1078 18.221 10.4279C18.221 12.7481 18.2123 13.0233 18.1706 13.9397C18.1318 14.7867 17.991 15.2466 17.8711 15.5531C17.7321 15.9305 17.5101 16.272 17.2217 16.5524C16.9414 16.8409 16.5999 17.0628 16.2224 17.2018C15.916 17.3212 15.456 17.4625 14.609 17.5013C13.6926 17.543 13.418 17.5517 11.0973 17.5517C8.77653 17.5517 8.50194 17.543 7.58547 17.5013C6.73852 17.4625 6.27855 17.3217 5.97209 17.2018C5.59464 17.0627 5.25317 16.8408 4.97278 16.5524C4.68439 16.272 4.46248 15.9305 4.32337 15.5531C4.20403 15.2466 4.06268 14.7867 4.02387 13.9397C3.98216 13.0233 3.97347 12.7481 3.97347 10.4279C3.97347 8.1078 3.98216 7.83263 4.02387 6.91616C4.06268 6.06921 4.20346 5.60924 4.32337 5.30278C4.48037 4.89726 4.66922 4.60761 4.97278 4.30347C5.25313 4.015 5.59462 3.79308 5.97209 3.65406C6.27855 3.53472 6.73852 3.39337 7.58547 3.35456C8.50194 3.31285 8.77711 3.30416 11.0973 3.30416Z" fill="black"/>
<path fill-rule="evenodd" clip-rule="evenodd" d="M11.0973 13.3274C10.7165 13.3274 10.3395 13.2524 9.98769 13.1067C9.63592 12.961 9.31628 12.7474 9.04705 12.4782C8.77781 12.2089 8.56423 11.8893 8.41852 11.5375C8.27281 11.1857 8.19782 10.8087 8.19782 10.4279C8.19782 10.0472 8.27281 9.67015 8.41852 9.31837C8.56423 8.96659 8.77781 8.64696 9.04705 8.37772C9.31628 8.10848 9.63592 7.89491 9.98769 7.7492C10.3395 7.60349 10.7165 7.52849 11.0973 7.52849C11.8662 7.52849 12.6037 7.83397 13.1475 8.37772C13.6912 8.92147 13.9967 9.65896 13.9967 10.4279C13.9967 11.1969 13.6912 11.9344 13.1475 12.4782C12.6037 13.0219 11.8662 13.3274 11.0973 13.3274ZM11.0973 5.96146C9.91268 5.96146 8.77661 6.43203 7.93898 7.26966C7.10136 8.10729 6.63078 9.24335 6.63078 10.4279C6.63078 11.6125 7.10136 12.7486 7.93898 13.5862C8.77661 14.4239 9.91268 14.8944 11.0973 14.8944C12.2819 14.8944 13.4179 14.4239 14.2555 13.5862C15.0932 12.7486 15.5638 11.6125 15.5638 10.4279C15.5638 9.24335 15.0932 8.10729 14.2555 7.26966C13.4179 6.43203 12.2819 5.96146 11.0973 5.96146ZM16.8631 5.88035C16.8631 6.16037 16.7519 6.42891 16.5539 6.62691C16.3559 6.82491 16.0874 6.93615 15.8074 6.93615C15.5273 6.93615 15.2588 6.82491 15.0608 6.62691C14.8628 6.42891 14.7516 6.16037 14.7516 5.88035C14.7516 5.60034 14.8628 5.33179 15.0608 5.13379C15.2588 4.93579 15.5273 4.82456 15.8074 4.82456C16.0874 4.82456 16.3559 4.93579 16.5539 5.13379C16.7519 5.33179 16.8631 5.60034 16.8631 5.88035Z" fill="black"/>
</svg>
