<svg width="22" height="21" viewBox="0 0 22 21" fill="none" xmlns="http://www.w3.org/2000/svg">
<path fill-rule="evenodd" clip-rule="evenodd" d="M18.7965 3.8753C19.6195 4.09562 20.2664 4.74241 20.4867 5.56545C20.8848 7.05574 20.8864 10.1669 20.8864 10.1669C20.8864 10.1669 20.8864 13.2781 20.4867 14.7684C20.2664 15.5915 19.6195 16.2383 18.7965 16.4585C17.3063 16.8583 11.3278 16.8583 11.3278 16.8583C11.3278 16.8583 5.34932 16.8583 3.85903 16.4585C3.03599 16.2383 2.3892 15.5915 2.16888 14.7684C1.76917 13.2781 1.76917 10.1669 1.76917 10.1669C1.76917 10.1669 1.76917 7.05574 2.16888 5.56545C2.3892 4.74241 3.03599 4.09562 3.85903 3.8753C5.34932 3.47559 11.3278 3.47559 11.3278 3.47559C11.3278 3.47559 17.3063 3.47559 18.7965 3.8753ZM14.3808 10.1672L9.41423 13.0344V7.29991L14.3808 10.1672Z" fill="black"/>
</svg>
